<svg xmlns="http://www.w3.org/2000/svg" width="104" height="36" fill="#fff" xmlns:v="https://vecta.io/nano"><path d="M30.767 8.794L15.734 0h-.467L.231 8.794 0 9.205v17.584l.231.411L15.266 36h.467l15.034-8.804.233-.411V9.201l-.233-.407zM14.182 26.267l-.461.483a8.67 8.67 0 0 1-6.17-2.589 8.9 8.9 0 0 1-2.556-6.25 8.87 8.87 0 0 1 2.562-6.238 8.67 8.67 0 0 1 6.163-2.582l.467.473-.006 16.704zm2.955.473l-.467-.473V9.563l.467-.473a8.67 8.67 0 0 1 6.153 2.588c1.632 1.653 2.552 3.894 2.556 6.232s-.917 4.588-2.551 6.245a8.67 8.67 0 0 1-6.161 2.594l.002-.01zm28.247-5.764l-.672-6.528.24 1.248 3.216 10.56h1.056l3.168-10.608.384-1.92-.816 7.008V36h5.28V1.44h-4.56l-3.984 14.256L44.664 1.44h-4.56V36h5.28V20.976zM69.936 36v-5.52h-2.448V6.96h2.448V1.44H59.28v5.52h2.496v23.52H59.28V36h10.656zm7.165-15.312l-.288-4.224.528 2.4L81.805 36h4.752V1.44h-5.232v15.312l.336 4.416-.576-2.64-4.32-17.088h-4.848V36h5.184V20.688zM88.995 36h7.008c4.464 0 7.44-1.776 7.44-6.96V8.352c0-5.136-2.832-6.912-7.296-6.912h-7.152V36zm6.768-29.616c1.056 0 1.68.576 1.68 2.208v19.92c0 1.632-.528 2.304-1.632 2.304h-.96V6.384h.912z"/></svg>